<svg width="1440" height="590" viewBox="0 0 1440 590" fill="none" xmlns="http://www.w3.org/2000/svg">
<g clip-path="url(#clip0)">
<rect width="1440" height="590" fill="url(#paint0_linear)"/>
<path d="M69.1115 420.017C72.0272 417.297 76.5957 417.454 79.3172 420.369L318.906 676.944C323.298 681.647 319.81 689.313 313.379 689.091L-182.89 671.993C-189.321 671.771 -192.274 663.884 -187.568 659.494L69.1115 420.017Z" fill="url(#paint1_linear)" stroke="url(#paint2_linear)" stroke-width="6"/>
<path d="M112.393 488.264C116.383 492.256 116.383 498.726 112.393 502.717L12.8562 602.297C6.41712 608.739 -4.59607 604.179 -4.59607 595.071L-4.59607 395.911C-4.59607 386.803 6.41711 382.242 12.8562 388.684L112.393 488.264Z" fill="url(#paint3_linear)"/>
<path opacity="0.8" d="M1410.24 500.5C1410.24 590.377 1337.38 663.237 1247.5 663.237C1157.62 663.237 1084.76 590.377 1084.76 500.5C1084.76 410.623 1157.62 337.764 1247.5 337.764C1337.38 337.764 1410.24 410.623 1410.24 500.5Z" stroke="url(#paint4_linear)" stroke-width="59.527"/>
<path opacity="0.7" d="M567.076 271.955C557.777 281.249 542.706 281.249 533.408 271.955L301.45 40.0985C286.445 25.0995 297.068 -0.55423 318.284 -0.55423L782.2 -0.55423C803.416 -0.55423 814.039 25.0995 799.033 40.0985L567.076 271.955Z" fill="url(#paint5_linear)"/>
<path opacity="0.7" d="M830.838 355.162C821.539 364.461 806.461 364.461 797.162 355.162L479.659 37.6487C464.658 22.6481 475.282 -3 496.496 -3L1131.5 -3C1152.72 -3 1163.34 22.6482 1148.34 37.6488L830.838 355.162Z" fill="url(#paint6_linear)"/>
</g>
<defs>
<linearGradient id="paint0_linear" x1="-175.228" y1="375.936" x2="1635.55" y2="353.355" gradientUnits="userSpaceOnUse">
<stop stop-color="#323234"/>
<stop offset="1" stop-color="#202227"/>
</linearGradient>
<linearGradient id="paint1_linear" x1="-111.269" y1="586.372" x2="235.363" y2="598.314" gradientUnits="userSpaceOnUse">
<stop stop-color="#363636"/>
<stop offset="1" stop-color="#2A2B2C"/>
</linearGradient>
<linearGradient id="paint2_linear" x1="74.5361" y1="410.853" x2="129.809" y2="687.882" gradientUnits="userSpaceOnUse">
<stop stop-color="#BB2C4D"/>
<stop offset="1" stop-color="#2C2C30"/>
</linearGradient>
<linearGradient id="paint3_linear" x1="14.0888" y1="317.078" x2="17.2841" y2="677.981" gradientUnits="userSpaceOnUse">
<stop stop-color="#323234"/>
<stop offset="1" stop-color="#202227"/>
</linearGradient>
<linearGradient id="paint4_linear" x1="1077" y1="562.5" x2="1440.14" y2="512.944" gradientUnits="userSpaceOnUse">
<stop stop-color="#BB2C4D"/>
<stop offset="1" stop-color="#26272C"/>
</linearGradient>
<linearGradient id="paint5_linear" x1="740.749" y1="95.9834" x2="372.953" y2="95.9834" gradientUnits="userSpaceOnUse">
<stop stop-color="#323234"/>
<stop offset="1" stop-color="#393939"/>
</linearGradient>
<linearGradient id="paint6_linear" x1="1060.8" y1="122.12" x2="584.328" y2="122.12" gradientUnits="userSpaceOnUse">
<stop stop-color="#323234"/>
<stop offset="1" stop-color="#393939"/>
</linearGradient>
<clipPath id="clip0">
<rect width="1440" height="590" fill="white"/>
</clipPath>
</defs>
</svg>
