<svg width="138" height="138" viewBox="0 0 138 138" fill="none" xmlns="http://www.w3.org/2000/svg">
<path d="M138 69C138 107.108 107.108 138 69 138C30.8924 138 0 107.108 0 69C0 30.8924 30.8924 0 69 0C107.108 0 138 30.8924 138 69ZM16.974 69C16.974 97.7332 40.2668 121.026 69 121.026C97.7332 121.026 121.026 97.7332 121.026 69C121.026 40.2668 97.7332 16.974 69 16.974C40.2668 16.974 16.974 40.2668 16.974 69Z" fill="#EEECFA"/>
<path d="M11.2078 86.9413C6.73136 88.331 4.18185 93.116 6.11029 97.3882C9.92468 105.838 15.4157 113.461 22.2811 119.777C31.2356 128.016 42.2095 133.74 54.09 136.37C65.9705 138.999 78.335 138.44 89.9297 134.749C101.524 131.058 111.937 124.367 120.111 115.353C128.286 106.34 133.931 95.3255 136.475 83.4264C139.019 71.5274 138.371 59.1671 134.597 47.5992C130.823 36.0313 124.057 25.6671 114.986 17.5576C108.03 11.3401 99.9094 6.61758 91.1279 3.64436C86.6882 2.14118 82.1743 5.14462 81.2272 9.73518C80.2801 14.3257 83.2722 18.7508 87.648 20.4309C93.5169 22.6843 98.9513 25.9915 103.673 30.2125C110.513 36.327 115.615 44.1416 118.46 52.8638C121.306 61.586 121.794 70.9056 119.876 79.8775C117.958 88.8494 113.701 97.1545 107.538 103.951C101.374 110.747 93.5234 115.792 84.781 118.575C76.0386 121.358 66.7157 121.779 57.7578 119.797C48.7999 117.814 40.5256 113.498 33.774 107.286C29.1131 102.998 25.2924 97.9114 22.4781 92.2898C20.3798 88.0985 15.6843 85.5516 11.2078 86.9413Z" fill="#DD375D"/>
<path d="M54.56 60.68C52.576 59.112 50.592 58.216 47.552 58.216C40.864 58.216 37.728 63.528 37.728 70.472C37.728 74.952 38.752 77.352 40.384 78.984C41.952 80.552 43.936 81.384 46.848 81.384C51.712 81.384 55.392 78.216 55.392 73.608C55.392 68.904 51.968 66.44 47.52 66.44C45.312 66.44 44 67.144 42.88 67.88C43.2 64.936 44.608 62.696 47.392 62.696C49.312 62.696 50.496 63.368 51.968 64.488L54.56 60.68ZM50.496 73.832C50.496 75.784 49.088 77.16 46.656 77.16C44.224 77.16 42.752 75.752 42.752 73.8C42.752 71.88 44.16 70.536 46.592 70.536C49.024 70.536 50.496 71.912 50.496 73.832ZM57.643 60.36L58.667 64.392L62.571 63.432V81H67.435V58.44H64.075L57.643 60.36ZM82.695 64.04C82.695 60.872 80.519 58.344 77.287 58.344C74.023 58.344 71.815 60.904 71.815 64.104C71.815 67.272 73.991 69.8 77.223 69.8C80.487 69.8 82.695 67.24 82.695 64.04ZM94.215 58.6H90.407L74.055 81H77.863L94.215 58.6ZM96.455 75.496C96.455 72.328 94.279 69.8 91.047 69.8C87.783 69.8 85.575 72.36 85.575 75.56C85.575 78.728 87.751 81.256 90.983 81.256C94.247 81.256 96.455 78.696 96.455 75.496ZM79.335 64.104C79.335 65.608 78.631 66.888 77.287 66.888C76.007 66.888 75.175 65.576 75.175 64.04C75.175 62.536 75.879 61.256 77.223 61.256C78.503 61.256 79.335 62.568 79.335 64.104ZM93.095 75.56C93.095 77.064 92.391 78.344 91.047 78.344C89.767 78.344 88.935 77.032 88.935 75.496C88.935 73.992 89.639 72.712 90.983 72.712C92.263 72.712 93.095 74.024 93.095 75.56Z" fill="#222529"/>
</svg>
