<svg width="138" height="138" viewBox="0 0 138 138" fill="none" xmlns="http://www.w3.org/2000/svg">
<path d="M138 69C138 107.108 107.108 138 69 138C30.8924 138 0 107.108 0 69C0 30.8924 30.8924 0 69 0C107.108 0 138 30.8924 138 69ZM16.974 69C16.974 97.7332 40.2668 121.026 69 121.026C97.7332 121.026 121.026 97.7332 121.026 69C121.026 40.2668 97.7332 16.974 69 16.974C40.2668 16.974 16.974 40.2668 16.974 69Z" fill="#EEECFA"/>
<path d="M11.2078 86.9413C6.73136 88.331 4.18181 93.1162 6.11018 97.3884C12.1528 110.775 22.3485 121.96 35.2928 129.206C50.7189 137.843 68.8715 140.229 86.0054 135.872C103.139 131.515 117.947 120.747 127.373 105.79C136.8 90.834 140.126 72.8299 136.665 55.4928C133.204 38.1556 123.221 22.8083 108.774 12.6173C94.3279 2.42637 76.521 -1.8307 59.0274 0.724473C41.5339 3.27965 25.6885 12.4521 14.7605 26.3494C5.59071 38.0107 0.470433 52.2523 0.0307439 66.9332C-0.109575 71.6183 4.0818 75.0579 8.74876 74.6224C13.4157 74.1869 16.7733 70.0323 17.1016 65.3565C17.8266 55.0287 21.6244 45.0809 28.1034 36.8414C36.3431 26.3629 48.2905 19.4469 61.4807 17.5203C74.6708 15.5936 88.0973 18.8035 98.9898 26.4875C109.882 34.1715 117.41 45.7434 120.019 58.8155C122.629 71.8877 120.121 85.4629 113.014 96.74C105.906 108.017 94.741 116.136 81.8221 119.421C68.9031 122.706 55.216 120.908 43.5847 114.396C34.4389 109.275 27.1128 101.548 22.478 92.2901C20.3797 88.0987 15.6843 85.5516 11.2078 86.9413Z" fill="#DD375D"/>
<path d="M53.456 70.128C53.456 65.68 52.4 63.248 50.8 61.648C49.104 59.952 47.344 59.216 44.336 59.216C39.28 59.216 35.792 62.544 35.792 67.088C35.792 71.664 38.928 74.352 43.792 74.352C45.744 74.352 47.248 73.744 48.336 72.816C48.016 75.824 46.544 77.904 43.792 77.904C41.904 77.904 40.528 77.296 38.896 75.984L36.304 79.728C38.192 81.296 40.4 82.384 43.664 82.384C50.032 82.384 53.456 77.424 53.456 70.128ZM48.432 66.896C48.432 68.848 47.024 70.256 44.592 70.256C42.16 70.256 40.688 68.88 40.688 66.864C40.688 64.848 42.064 63.44 44.496 63.44C46.96 63.44 48.432 64.88 48.432 66.896ZM66.203 63.824L60.859 69.2L61.627 72.336H63.675C66.491 72.336 68.059 73.36 68.059 75.216C68.059 76.912 66.747 77.968 64.891 77.968C62.619 77.968 61.019 77.008 59.483 75.28L56.091 78.512C58.011 80.784 60.795 82.384 64.827 82.384C69.819 82.384 72.891 79.28 72.891 75.024C72.891 70.832 69.947 69.232 66.875 68.72L72.539 63.312V59.6H57.403V63.824H66.203ZM87.07 65.04C87.07 61.872 84.894 59.344 81.662 59.344C78.398 59.344 76.19 61.904 76.19 65.104C76.19 68.272 78.366 70.8 81.598 70.8C84.862 70.8 87.07 68.24 87.07 65.04ZM98.59 59.6H94.782L78.43 82H82.238L98.59 59.6ZM100.83 76.496C100.83 73.328 98.654 70.8 95.422 70.8C92.158 70.8 89.95 73.36 89.95 76.56C89.95 79.728 92.126 82.256 95.358 82.256C98.622 82.256 100.83 79.696 100.83 76.496ZM83.71 65.104C83.71 66.608 83.006 67.888 81.662 67.888C80.382 67.888 79.55 66.576 79.55 65.04C79.55 63.536 80.254 62.256 81.598 62.256C82.878 62.256 83.71 63.568 83.71 65.104ZM97.47 76.56C97.47 78.064 96.766 79.344 95.422 79.344C94.142 79.344 93.31 78.032 93.31 76.496C93.31 74.992 94.014 73.712 95.358 73.712C96.638 73.712 97.47 75.024 97.47 76.56Z" fill="#222529"/>
</svg>
