<svg width="138" height="138" viewBox="0 0 138 138" fill="none" xmlns="http://www.w3.org/2000/svg">
<path d="M138 69C138 107.108 107.108 138 69 138C30.8924 138 0 107.108 0 69C0 30.8924 30.8924 0 69 0C107.108 0 138 30.8924 138 69ZM16.974 69C16.974 97.7332 40.2668 121.026 69 121.026C97.7332 121.026 121.026 97.7332 121.026 69C121.026 40.2668 97.7332 16.974 69 16.974C40.2668 16.974 16.974 40.2668 16.974 69Z" fill="#EEECFA"/>
<path d="M37.176 61.856H47.704L37.688 80H43.256L53.304 61.312V57.6H37.176V61.856ZM56.88 68.64L59.728 70.528C60.784 70.08 62.064 69.696 63.472 69.696C65.872 69.696 67.44 70.816 67.44 72.768C67.44 74.784 66 75.904 63.696 75.904C61.712 75.904 60.048 75.008 58.352 73.472L55.376 77.024C57.552 79.104 60.176 80.384 63.76 80.384C68.912 80.384 72.272 77.376 72.272 72.608C72.272 67.52 68.848 65.408 64.432 65.408C63.184 65.408 62.384 65.568 61.488 65.792L61.744 61.92H71.28V57.6H57.52L56.88 68.64ZM86.4763 63.04C86.4763 59.872 84.3003 57.344 81.0683 57.344C77.8043 57.344 75.5963 59.904 75.5963 63.104C75.5963 66.272 77.7723 68.8 81.0043 68.8C84.2683 68.8 86.4763 66.24 86.4763 63.04ZM97.9963 57.6H94.1883L77.8363 80H81.6443L97.9963 57.6ZM100.236 74.496C100.236 71.328 98.0603 68.8 94.8283 68.8C91.5643 68.8 89.3563 71.36 89.3563 74.56C89.3563 77.728 91.5323 80.256 94.7643 80.256C98.0283 80.256 100.236 77.696 100.236 74.496ZM83.1163 63.104C83.1163 64.608 82.4123 65.888 81.0683 65.888C79.7883 65.888 78.9563 64.576 78.9563 63.04C78.9563 61.536 79.6603 60.256 81.0043 60.256C82.2843 60.256 83.1163 61.568 83.1163 63.104ZM96.8763 74.56C96.8763 76.064 96.1723 77.344 94.8283 77.344C93.5483 77.344 92.7163 76.032 92.7163 74.496C92.7163 72.992 93.4203 71.712 94.7643 71.712C96.0443 71.712 96.8763 73.024 96.8763 74.56Z" fill="#222529"/>
<path d="M118.469 103.852C122.3 106.552 127.647 105.653 129.856 101.519C133.076 95.4939 135.391 89.0095 136.711 82.2747C138.577 72.7563 138.415 62.9515 136.236 53.4999C134.058 44.0482 129.91 35.1622 124.066 27.4215C118.221 19.6807 110.81 13.2592 102.316 8.57596C93.8217 3.89268 84.4358 1.05283 74.7702 0.241695C65.1047 -0.569442 55.3767 0.666358 46.221 3.86847C37.0653 7.07058 28.6875 12.1671 21.6343 18.8254C16.6437 23.5366 12.3956 28.9549 9.01867 34.8937C6.70179 38.9683 8.79588 43.9693 13.124 45.7688C17.452 47.5682 22.3637 45.4685 24.8422 41.4901C27.1963 37.7114 30.0319 34.2405 33.2863 31.1683C38.6044 26.148 44.9212 22.3052 51.8246 19.8908C58.728 17.4764 66.0629 16.5446 73.3508 17.1562C80.6386 17.7678 87.7156 19.9091 94.12 23.4403C100.524 26.9715 106.113 31.8133 110.519 37.6498C114.926 43.4863 118.053 50.1864 119.696 57.3129C121.339 64.4394 121.461 71.8323 120.054 79.0091C119.193 83.4009 117.771 87.6514 115.832 91.6589C113.791 95.8783 114.637 101.153 118.469 103.852Z" fill="#DD375D"/>
</svg>
