<svg width="39" height="44" viewBox="0 0 39 44" fill="none" xmlns="http://www.w3.org/2000/svg">
<rect x="3.97949" y="0.75" width="33.6192" height="38.8669" stroke="black" stroke-width="1.5"/>
<path d="M1.40367 32.1011L1.6055 32.0055M8.87154 36.5414L5.23852 30.2846L1.6055 32.0055M8.87154 36.5414L18.5596 35.3304L16.1237 31.2937M8.87154 36.5414L7.4587 37.3763M1.6055 32.0055L1 32.3029L1.90825 34.1194L4.43118 39.1653L4.83485 38.9267M5.23852 30.0827L11.4954 23.624L13.5137 26.9687M13.5137 26.9687C14.9266 26.5266 17.389 26.2075 17.5504 27.6607C17.7119 29.1139 16.8011 30.6209 16.1237 31.2937M13.5137 26.9687L16.1237 31.2937M7.4587 37.3763L9.67888 41.7891L7.25687 43.0001L4.83485 38.9267M7.4587 37.3763L4.83485 38.9267" stroke="#DD375D" stroke-width="1.5"/>
<path d="M11.1011 9.28418H29.2662" stroke="#DD375D" stroke-width="1.61468"/>
<path d="M11.9087 14.9355H29.2664" stroke="#DD375D" stroke-width="1.61468"/>
<path d="M11.7065 20.1846H23.0093" stroke="#DD375D" stroke-width="1.61468"/>
</svg>
