<svg width="49" height="50" viewBox="0 0 49 50" fill="none" xmlns="http://www.w3.org/2000/svg">
<circle cx="20.7566" cy="21.0163" r="14.5486" stroke="black"/>
<circle cx="20.8864" cy="20.8864" r="20.3864" stroke="black"/>
<circle cx="20.886" cy="21.405" r="3.00268" stroke="black"/>
<path fill-rule="evenodd" clip-rule="evenodd" d="M29.1163 21.0166C29.1163 25.6334 25.3736 29.376 20.7569 29.376C16.1401 29.376 12.3975 25.6334 12.3975 21.0166C12.3975 16.3999 16.1401 12.6572 20.7569 12.6572C25.3736 12.6572 29.1163 16.3999 29.1163 21.0166ZM22.7886 30.6665C22.133 30.8038 21.4534 30.876 20.7569 30.876C15.3117 30.876 10.8975 26.4618 10.8975 21.0166C10.8975 15.5714 15.3117 11.1572 20.7569 11.1572C26.2021 11.1572 30.6163 15.5714 30.6163 21.0166C30.6163 21.7107 30.5446 22.388 30.4081 23.0415L30.6279 22.8218L47.8016 39.9952L47.9173 40.1108L47.9743 40.2641C48.4656 41.5852 48.7971 43.6471 48.0612 45.4729C47.6859 46.4038 47.0368 47.2598 46.0215 47.8979C45.0134 48.5315 43.6839 48.926 41.9779 49.0092L41.7113 49.0222L41.4964 48.8639L38.1165 46.3731L37.524 45.9364L37.9494 45.3358C38.2616 44.895 38.6918 44.2236 38.9762 43.641C39.0758 43.4368 39.1464 43.2658 39.1899 43.133C38.5351 42.8905 37.1921 42.7172 35.9072 43.7352L35.3814 44.1519L34.9089 43.6755L33.2189 41.9713L32.7753 41.5238L33.1395 41.0097C33.4449 40.5785 33.8612 39.9001 34.1223 39.2758C34.2544 38.9601 34.3283 38.7011 34.3472 38.5167C34.3529 38.4611 34.3527 38.4237 34.3511 38.4004C34.2788 38.3488 34.1295 38.2746 33.8704 38.2191C33.5701 38.1546 33.1958 38.1314 32.7979 38.1601C31.9631 38.2202 31.2376 38.4887 30.9041 38.825L30.3456 39.3882L29.8145 38.7991L28.5145 37.357L28.1051 36.9029L28.4674 36.4104C28.9418 35.7656 29.5147 34.7995 29.7515 33.9764C29.8719 33.5582 29.8764 33.2743 29.8295 33.1123C29.8016 33.0159 29.7533 32.9232 29.5192 32.8576C28.0356 32.4421 26.8072 33.3137 26.3931 33.801L25.7985 34.5005L25.2317 33.7784L22.7886 30.6665ZM24.3348 30.2068L25.9138 32.2182C26.7853 31.5644 28.2203 30.9361 29.9238 31.4132C30.6257 31.6099 31.0888 32.0688 31.2702 32.6948C31.4327 33.2553 31.3446 33.8644 31.193 34.3912C30.9513 35.2311 30.4734 36.111 30.0262 36.7937L30.4726 37.2889C31.138 36.9058 31.9617 36.7164 32.6901 36.6639C33.2022 36.6271 33.7216 36.653 34.1851 36.7524C34.6306 36.848 35.1117 37.0303 35.454 37.3755C35.8439 37.7687 35.8781 38.2921 35.8394 38.6695C35.799 39.0644 35.6633 39.4788 35.5061 39.8546C35.2872 40.378 34.9906 40.9099 34.7146 41.3493L35.5304 42.172C37.4865 40.9792 39.4738 41.5119 40.2497 41.9813C40.5383 42.156 40.6711 42.4299 40.7175 42.6667C40.7603 42.885 40.7376 43.0969 40.705 43.2628C40.6393 43.5977 40.4872 43.965 40.3242 44.299C40.1123 44.7331 39.841 45.1923 39.5847 45.5917L42.1676 47.4952C43.5465 47.396 44.5287 47.0645 45.2233 46.6279C45.9539 46.1687 46.4049 45.5696 46.6699 44.9121C47.1909 43.6197 47.0054 42.0556 46.6218 40.9367L30.0375 24.3528C29.0739 27.0332 26.9821 29.1754 24.3348 30.2068ZM34.3463 38.3683C34.3464 38.3682 34.3468 38.3695 34.3475 38.3724C34.3465 38.3698 34.3462 38.3684 34.3463 38.3683Z" fill="#DD375D"/>
</svg>
