<svg width="47" height="41" viewBox="0 0 47 41" fill="none" xmlns="http://www.w3.org/2000/svg">
<path d="M1.25732 24.3379V27.6721" stroke="black" stroke-width="0.974606"/>
<path d="M5.10449 22.0303V27.6727" stroke="black" stroke-width="0.974606"/>
<path d="M8.95166 18.1826V27.6722" stroke="black" stroke-width="0.974606"/>
<path d="M12.2859 20.2344V27.6722" stroke="black" stroke-width="0.974606"/>
<path d="M16.1331 23.3125V27.6726" stroke="black" stroke-width="0.974606"/>
<path d="M19.7236 18.1826V27.6722" stroke="black" stroke-width="0.974606"/>
<path d="M23.3142 15.875V27.6729" stroke="black" stroke-width="0.974606"/>
<path d="M18.953 30.2382C22.2211 30.2382 25.2387 29.1658 27.6731 27.3538C31.2531 24.6891 33.5721 20.4249 33.5721 15.6191C33.5721 7.54519 27.0269 1 18.953 1C12.3976 1 6.85004 5.31465 4.99512 11.259" stroke="black" stroke-width="1.5"/>
<path d="M32.0151 24.6307L43.9376 36.0644C44.661 36.7581 44.6851 37.9069 43.9914 38.6303C43.2976 39.3536 42.1488 39.3777 41.4255 38.684L29.5029 27.2503L32.0151 24.6307Z" stroke="black" stroke-width="1.5"/>
<circle cx="10.2331" cy="12.5424" r="1.55168" stroke="#DD375D" stroke-width="0.487303"/>
<circle cx="15.3627" cy="17.6713" r="1.55168" stroke="#DD375D" stroke-width="0.487303"/>
<path d="M1 21.5181L9.20721 13.5674" stroke="#DD375D" stroke-width="0.487303"/>
<path d="M11.5156 13.5674L14.3369 16.6451" stroke="#DD375D" stroke-width="0.487303"/>
<path d="M16.645 16.6455L23.5699 9.7207M23.5699 9.7207V13.3114M23.5699 9.7207H19.7227" stroke="#DD375D" stroke-width="0.487303"/>
</svg>
